<svg width="33" height="33" xmlns="http://www.w3.org/2000/svg" xmlns:xlink="http://www.w3.org/1999/xlink" xmlns:svgjs="http://svgjs.com/svgjs" fill="#6fa40b"><svg xmlns="http://www.w3.org/2000/svg" width="33" height="33" viewBox="2 1.997 32 32"><path paint-order="stroke fill markers" fill-rule="evenodd" d="M32 1.997H10a2 2 0 0 0-2 2.001v4H4c-1.106 0-2 .895-2 2v14c0 1.106.894 2 2 2h4v6a2 2 0 0 0 3.414 1.414l7.414-7.414H26c1.105 0 2-.894 2-2v-4h4c1.105 0 2-.894 2-2v-14a2 2 0 0 0-2-2zm-6 21A1 1 0 0 1 25 24h-6.172c-.827 0-1.414.585-1.414.585L10 31.998v-7a.999.999 0 0 0-1-1H5a1 1 0 0 1-1-1v-12a1 1 0 0 1 1-1h20a1 1 0 0 1 1 1v12zm6-6a1 1 0 0 1-1 1h-3v-8A1.998 1.998 0 0 0 26 8H10V4.998a1 1 0 0 1 1-1h20a1 1 0 0 1 1 1v12zm-23-1h5a1 1 0 1 0 0-1.999H9a1 1 0 1 0 0 2zm12 2H9a1 1 0 0 0 0 2h12a1 1 0 1 0 0-2z"/></svg></svg>