<svg width="29" height="33" xmlns="http://www.w3.org/2000/svg" xmlns:xlink="http://www.w3.org/1999/xlink" xmlns:svgjs="http://svgjs.com/svgjs" viewBox="0.063 0 28.874 33" fill="#6fa40b"><svg xmlns="http://www.w3.org/2000/svg" width="29" height="33" viewBox="2 1.998 28 32.001"><path paint-order="stroke fill markers" fill-rule="evenodd" d="M28 1.998H4A2 2 0 0 0 2 4v28c0 1.105.894 2 2 2h24c1.105 0 2-.895 2-2v-28a2 2 0 0 0-2-2zm0 29a1 1 0 0 1-1 1H5a1 1 0 0 1-1-1v-26A1 1 0 0 1 5 4h22a1 1 0 0 1 1 1v26zm-5-14H9a1 1 0 1 0 0 2h14a.999.999 0 1 0 0-2zm0 4H9a1 1 0 1 0 0 2h14a1 1 0 1 0 0-2zM23 25H9a.999.999 0 1 0 0 1.999h14a.998.998 0 1 0 0-1.999zm0-12.001H9a1 1 0 1 0 0 2.001h14a1 1 0 1 0 0-2.001zm-14-2h6a.999.999 0 1 0 0-1.999H9a.999.999 0 1 0 0 1.999z"/></svg></svg>