<svg width="33" height="33" xmlns="http://www.w3.org/2000/svg" xmlns:xlink="http://www.w3.org/1999/xlink" xmlns:svgjs="http://svgjs.com/svgjs" viewBox="0.002 0 32.996 33" fill="#6fa40b"><svg xmlns="http://www.w3.org/2000/svg" width="33" height="33" viewBox="1.001 1.998 31.997 32.001"><path paint-order="stroke fill markers" fill-rule="evenodd" d="M31.389 9.999H8.75c-.437 0-.556-.528-.556-.528L7.154 3.75C6.908 2.482 6.236 1.998 5 1.998h-3a1 1 0 1 0 0 2h2.766c.453 0 .503.574.503.574l3.577 19.665 1.11 4.578a2.984 2.984 0 0 0-.956 2.183c0 1.654 1.346 3 3 3 1.302 0 2.402-.839 2.816-2h6.369a2.995 2.995 0 0 0 2.815 2c1.655 0 3-1.346 3-3s-1.345-3-3-3c-1.302 0-2.401.84-2.815 2h-6.37a2.996 2.996 0 0 0-2.815-2c-.031 0-.06.007-.09.009l-.518-2.009H28c1.407 0 1.875-.672 2.19-1.78l2.685-11.75c.302-1.36.125-2.47-1.487-2.47zm-7.388 20a1 1 0 1 1 0 1.999 1 1 0 0 1 0-2zm-11 .999a1 1 0 1 1-2-.001 1 1 0 0 1 2 0zm17.751-18.51l-2.446 11.005s-.055.504-.617.504H11.267c-.321 0-.44-.227-.49-.383l-.037-.146-1.983-10.901s-.224-.57.479-.57h21.047c.625 0 .47.49.47.49zm-15.75 1.51a1 1 0 0 0-1 1v6a1 1 0 1 0 2 0v-6a1 1 0 0 0-1-1zm5 0a1 1 0 0 0-1 1v6a1 1 0 1 0 2 0v-6a1 1 0 0 0-1-1zm5 0a1 1 0 0 0-1 1v6a1 1 0 1 0 2 0v-6a1 1 0 0 0-1-1z"/></svg></svg>